HIERARCHY
ROOT root
{
	OFFSET	0	13.1	24.9
	CHANNELS 6  Xposition Yposition Zposition Xrotation Yrotation Zrotation
	JOINT spine_1
	{
		OFFSET	0	9.99999	0
		CHANNELS 3  Xrotation Yrotation Zrotation
		JOINT spine_2
		{
			OFFSET	0	112	-10
			CHANNELS 3  Xrotation Yrotation Zrotation
			JOINT spine_3
			{
				OFFSET	0	206.5	19.3
				CHANNELS 3  Xrotation Yrotation Zrotation
				JOINT spine_4
				{
					OFFSET	0	110.4	14.6
					CHANNELS 3  Xrotation Yrotation Zrotation
					JOINT neck_1
					{
						OFFSET	0	71.8	-50.3
						CHANNELS 3  Xrotation Yrotation Zrotation
						JOINT neck_2
						{
							OFFSET	0	86.2	-25.8
							CHANNELS 3  Xrotation Yrotation Zrotation
							JOINT head_ee
							{
								OFFSET	0	179.8	-8.7
								CHANNELS 3  Xrotation Yrotation Zrotation
								End Site
								{
									OFFSET	1	0	0
								}
							}
						}
					}
					JOINT left_clavicle
					{
						OFFSET	-43.2	22.4	-70.8
						CHANNELS 3  Xrotation Yrotation Zrotation
						JOINT left_shoulder
						{
							OFFSET	-93.9	-5.79999	48.7
							CHANNELS 3  Xrotation Yrotation Zrotation
							JOINT left_elbow
							{
								OFFSET	-291.4	-30.8	15.2
								CHANNELS 3  Xrotation Yrotation Zrotation
								JOINT left_lowarm_twist
								{
									OFFSET	-110.7	-3.89999	13.6
									CHANNELS 3  Xrotation Yrotation Zrotation
									JOINT left_hand
									{
										OFFSET	-110.7	-3.89999	13.6
										CHANNELS 3  Xrotation Yrotation Zrotation
										JOINT left_ee
										{
											OFFSET	-80.8	-5.10001	12.1
											CHANNELS 3  Xrotation Yrotation Zrotation
											End Site
											{
												OFFSET	1	0	0
											}
										}
									}
								}
							}
						}
					}
					JOINT right_clavicle
					{
						OFFSET	43.2	22.4	-70.8
						CHANNELS 3  Xrotation Yrotation Zrotation
						JOINT right_shoulder
						{
							OFFSET	93.9	-5.79999	48.7
							CHANNELS 3  Xrotation Yrotation Zrotation
							JOINT right_elbow
							{
								OFFSET	291.4	-30.8	15.2
								CHANNELS 3  Xrotation Yrotation Zrotation
								JOINT right_lowarm_twist
								{
									OFFSET	110.7	-3.89999	13.6
									CHANNELS 3  Xrotation Yrotation Zrotation
									JOINT right_hand
									{
										OFFSET	110.7	-3.89999	13.6
										CHANNELS 3  Xrotation Yrotation Zrotation
										JOINT right_ee
										{
											OFFSET	80.8	-5.10001	12.1
											CHANNELS 3  Xrotation Yrotation Zrotation
											End Site
											{
												OFFSET	1	0	0
											}
										}
									}
								}
							}
						}
					}
				}
			}
		}
	}
	JOINT left_hip
	{
		OFFSET	-82.8	-127.5	0.300001
		CHANNELS 3  Xrotation Yrotation Zrotation
		JOINT left_knee
		{
			OFFSET	-28.2	-396.7	2.2
			CHANNELS 3  Xrotation Yrotation Zrotation
			JOINT left_ankle
			{
				OFFSET	-11.7	-411.3	35.4
				CHANNELS 3  Xrotation Yrotation Zrotation
				JOINT left_toes
				{
					OFFSET	0	-60	-88.6
					CHANNELS 3  Xrotation Yrotation Zrotation
					JOINT left_foot_ee
					{
						OFFSET	-22.5	-16.5	-42.2
						CHANNELS 3  Xrotation Yrotation Zrotation
						End Site
						{
							OFFSET	1	0	0
						}
					}
				}
			}
		}
	}
	JOINT right_hip
	{
		OFFSET	82.8	-127.5	0.300001
		CHANNELS 3  Xrotation Yrotation Zrotation
		JOINT right_knee
		{
			OFFSET	28.2	-396.7	2.2
			CHANNELS 3  Xrotation Yrotation Zrotation
			JOINT right_ankle
			{
				OFFSET	11.7	-411.3	35.4
				CHANNELS 3  Xrotation Yrotation Zrotation
				JOINT right_toes
				{
					OFFSET	0	-60	-88.6
					CHANNELS 3  Xrotation Yrotation Zrotation
					JOINT right_foot_ee
					{
						OFFSET	22.5	-16.5	-42.2
						CHANNELS 3  Xrotation Yrotation Zrotation
						End Site
						{
							OFFSET	1	0	0
						}
					}
				}
			}
		}
	}
}
MOTION
Frames: 11
Frame Time: 0.02
2976.07158868 707.636 -1879.88478912 0.290942040303 23.9564502639 1.76968009661 -0.408201 0.250482 0.818399 -0.40785 0.1979 0.832678 -0.404685 0.0124342 0.85578 -0.405677 0.147428 0.843078 5.69974 2.07705 1.62632 5.708 2.10671 1.96486 -0.0 0.0 -0.0 4.96952 -0.164519 9.59563 1.04 -3.9723 62.8955 1.04983 -27.4763 0.256669 71.7415 -2.92305 -8.07747 1.35109 -19.9058 0.50437 -0.0 0.0 -0.0 7.50345 7.5887 -14.5292 -34.513 45.9647 -60.7872 0.943172 25.0425 -0.209468 -52.5723 4.37614 -4.81063 0.0491787 18.2621 7.44225 0.0 0.0 0.0 10.2167 5.80277 2.05539 -7.5738 0.236941 1.13736 24.2894 24.6921 -3.41366 31.3591 -0.0 -0.0 -0.0 0.0 -0.0 28.4544 16.3674 -6.58009 -60.2691 2.22912 -8.55503 -8.04698 -24.1972 -1.24173 2.55588 -0.0 -0.0 0.0 0.0 0.0 
2959.62200453 698.601 -1883.82476217 0.140802783709 25.6021647118 2.43065430758 -0.345955 0.16077 0.644186 -0.345732 0.119454 0.65311 -0.344207 -0.0244676 0.663493 -0.344812 0.0806235 0.659031 4.87933 3.04851 2.75782 4.89995 2.82313 3.30287 -0.0 0.0 -0.0 4.52358 -1.77827 8.65583 4.33615 -3.97187 63.5604 1.08665 -28.2925 0.273888 72.7024 -3.0255 -8.14609 1.42676 -16.6644 2.45939 -0.0 0.0 -0.0 7.79753 5.66463 -15.1815 -35.7807 44.826 -60.4755 0.860487 23.0864 -0.175747 -54.0702 4.55587 -4.87866 -0.580548 17.1049 11.2065 0.0 0.0 0.0 7.87221 5.7137 2.4989 -4.95235 0.171989 0.740343 25.8246 25.8915 -3.62902 32.1684 -0.0 -0.0 -0.0 0.0 -0.0 31.6594 13.6823 -6.8838 -57.4654 1.9326 -8.24031 -8.92193 -19.2337 -1.35101 2.89784 -0.0 -0.0 0.0 0.0 0.0 
2955.74549556 698.601 -1879.82419271 0.142067942633 26.6471752519 2.42778119334 -0.345955 0.16077 0.644186 -0.345732 0.119454 0.65311 -0.344207 -0.0244676 0.663493 -0.344812 0.0806235 0.659031 4.87933 3.04851 2.75782 4.89995 2.82313 3.30287 -0.0 0.0 -0.0 4.52358 -1.77827 8.65583 4.33615 -3.97187 63.5604 1.08665 -28.2925 0.273888 72.7024 -3.0255 -8.14609 1.42676 -16.6644 2.45939 -0.0 0.0 -0.0 7.79753 5.66463 -15.1815 -35.7807 44.826 -60.4755 0.860487 23.0864 -0.175747 -54.0702 4.55587 -4.87866 -0.580548 17.1049 11.2065 0.0 0.0 0.0 7.87221 5.7137 2.4989 -4.95235 0.171989 0.740343 25.8246 25.8915 -3.62902 32.1684 -0.0 -0.0 -0.0 0.0 -0.0 31.6594 13.6823 -6.8838 -57.4654 1.9326 -8.24031 -8.92193 -19.2337 -1.35101 2.89784 -0.0 -0.0 0.0 0.0 0.0 
2917.88104244 700.451 -1890.04099208 -0.336583021692 31.4729846119 3.67334764223 0.177373 0.00254066 0.191663 0.177394 -0.00966046 0.191436 0.177368 -0.0491068 0.185282 0.177321 -0.0192287 0.190713 4.23289 3.36763 2.62789 4.25522 3.53301 3.16875 -0.0 0.0 -0.0 4.05494 -4.66914 7.56894 11.1286 -3.06867 66.5743 1.10101 -28.6076 0.280731 72.8004 -3.03601 -8.15299 1.53629 -9.06219 6.5372 -0.0 0.0 -0.0 8.47762 2.42298 -16.592 -38.8596 41.8641 -58.768 0.643686 17.6857 -0.100142 -57.0965 4.92402 -5.00165 -2.03941 15.1438 20.5266 0.0 0.0 0.0 4.17675 3.87527 2.76862 -1.27538 0.0504091 0.189229 29.1868 27.5978 -4.07942 32.8369 -0.0 -0.0 -0.0 0.0 -0.0 37.368 10.2325 -6.91403 -60.7451 2.28097 -8.60702 -6.01965 -10.9252 -0.892658 7.07551 -0.0 -0.0 0.0 0.0 0.0 
2851.21292945 701.242 -1900.78460643 -2.14553687813 40.0271231782 5.74043785955 0.867443 -0.114307 -0.499051 0.867578 -0.0823195 -0.505313 0.868351 0.0179713 -0.511659 0.867991 -0.0630601 -0.508076 3.42534 2.96462 0.582417 3.44589 4.64949 0.8492 -0.0 0.0 -0.0 4.06075 -3.00504 7.67679 11.1626 -0.871472 68.9216 1.71081 -40.2773 0.627415 69.8638 -2.72624 -7.93846 2.65386 -1.56666 17.403 -0.0 0.0 -0.0 6.8809 -0.736123 -13.3561 -40.8311 39.2798 -58.7974 0.535743 14.8633 -0.0698825 -59.2144 5.18521 -5.07605 -3.96572 10.2133 32.817 0.0 0.0 0.0 2.24906 -2.54497 3.71288 -3.35567 0.123545 0.500097 31.3479 22.5913 -4.20462 34.1096 -0.0 -0.0 -0.0 0.0 -0.0 33.5993 23.9988 -12.9486 -32.0511 0.039944 -4.85497 -7.77802 -21.1334 -1.18383 6.61445 -0.0 -0.0 0.0 0.0 0.0 
2825.67324306 704.577 -1918.74445661 -2.05811081917 40.4496505666 5.60528478045 1.11255 0.0635537 -0.500118 1.11268 0.0952483 -0.495061 1.11186 0.188136 -0.467721 1.11157 0.111908 -0.491563 4.5206 2.7888 -0.0436862 4.54729 4.83885 0.103002 -0.0 0.0 -0.0 4.1801 -2.94144 7.91752 11.2092 0.150782 68.9912 1.7669 -41.1909 0.664018 69.409 -2.67928 -7.90384 2.67616 0.655247 18.4511 -0.0 0.0 -0.0 5.90506 -1.13536 -11.4495 -40.2273 39.3694 -59.7442 0.50565 14.0625 -0.0623666 -60.7807 5.38001 -5.12482 -4.28652 9.64794 35.1393 0.0 0.0 0.0 1.91308 -3.28333 3.34601 -4.71576 0.165234 0.704663 30.5652 22.9358 -4.12439 34.5313 -0.0 -0.0 -0.0 0.0 -0.0 31.4626 26.0951 -12.7587 -21.398 -0.276406 -3.253 -8.41976 -21.1046 -1.28257 6.49436 -0.0 -0.0 0.0 0.0 0.0 
2826.92611766 704.577 -1920.49975914 -2.04939373303 40.1630785902 5.59180912338 1.11255 0.0635537 -0.500118 1.11268 0.0952483 -0.495061 1.11186 0.188136 -0.467721 1.11157 0.111908 -0.491563 4.5206 2.7888 -0.0436862 4.54729 4.83885 0.103002 -0.0 0.0 -0.0 4.1801 -2.94144 7.91752 11.2092 0.150782 68.9912 1.7669 -41.1909 0.664018 69.409 -2.67928 -7.90384 2.67616 0.655247 18.4511 -0.0 0.0 -0.0 5.90506 -1.13536 -11.4495 -40.2273 39.3694 -59.7442 0.50565 14.0625 -0.0623666 -60.7807 5.38001 -5.12482 -4.28652 9.64794 35.1393 0.0 0.0 0.0 1.91308 -3.28333 3.34601 -4.71576 0.165234 0.704663 30.5652 22.9358 -4.12439 34.5313 -0.0 -0.0 -0.0 0.0 -0.0 31.4626 26.0951 -12.7587 -21.398 -0.276406 -3.253 -8.41976 -21.1046 -1.28257 6.49436 -0.0 -0.0 0.0 0.0 0.0 
2815.21837163 697.151 -1929.73015787 -3.38429645152 38.4369150331 6.92076931165 1.52131 0.078795 -0.847139 1.5217 0.132539 -0.840409 1.51975 0.285076 -0.801617 1.51888 0.154902 -0.836576 5.22744 3.23508 0.0897524 5.26244 5.45791 0.256505 -0.0 0.0 -0.0 4.3424 -2.85023 8.24498 12.6366 1.48205 68.1167 1.84082 -42.3571 0.713265 69.5342 -2.69217 -7.91341 2.5334 3.21784 18.4414 -0.0 0.0 -0.0 4.81012 -2.20067 -9.36327 -39.4761 41.0067 -61.3335 0.549667 15.2319 -0.0734976 -63.3844 5.70641 -5.19401 -4.53829 8.07789 36.4342 0.0 0.0 0.0 1.33195 -3.29731 2.7563 -4.15488 0.148632 0.620187 29.5436 24.5983 -4.04491 35.1335 -0.0 -0.0 -0.0 0.0 -0.0 31.5355 26.0845 -12.5086 -15.597 -0.322086 -2.36449 -7.45739 -19.4957 -1.1278 6.41856 -0.0 -0.0 0.0 0.0 0.0 
2815.6693903 697.151 -1930.35556838 -3.37966478146 38.3379843636 6.91331062151 1.52131 0.078795 -0.847139 1.5217 0.132539 -0.840409 1.51975 0.285076 -0.801617 1.51888 0.154902 -0.836576 5.22744 3.23508 0.0897524 5.26244 5.45791 0.256505 -0.0 0.0 -0.0 4.3424 -2.85023 8.24498 12.6366 1.48205 68.1167 1.84082 -42.3571 0.713265 69.5342 -2.69217 -7.91341 2.5334 3.21784 18.4414 -0.0 0.0 -0.0 4.81012 -2.20067 -9.36327 -39.4761 41.0067 -61.3335 0.549667 15.2319 -0.0734976 -63.3844 5.70641 -5.19401 -4.53829 8.07789 36.4342 0.0 0.0 0.0 1.33195 -3.29731 2.7563 -4.15488 0.148632 0.620187 29.5436 24.5983 -4.04491 35.1335 -0.0 -0.0 -0.0 0.0 -0.0 31.5355 26.0845 -12.5086 -15.597 -0.322086 -2.36449 -7.45739 -19.4957 -1.1278 6.41856 -0.0 -0.0 0.0 0.0 0.0 
2794.41722329 697.47 -1946.66148778 -5.13094675469 35.9293537523 8.29382270635 1.66256 0.0554521 -0.772907 1.66289 0.10452 -0.767813 1.66147 0.242339 -0.736027 1.66074 0.12306 -0.765061 5.06933 3.56895 1.08588 5.09749 5.16619 1.4174 -0.0 0.0 -0.0 4.50944 -2.57582 8.5905 14.5336 5.18447 67.1843 1.83331 -42.2406 0.708212 67.0445 -2.4396 -7.7179 2.80173 2.60402 20.0966 -0.0 0.0 -0.0 3.72122 -5.08618 -7.42522 -38.9625 45.0106 -63.2865 0.570527 15.7816 -0.0790748 -66.796 6.13798 -5.26201 -4.83344 4.52262 36.9983 0.0 0.0 0.0 -0.756883 -3.16771 1.94598 -3.89327 0.140605 0.58084 28.9346 26.1889 -4.01218 36.124 -0.0 -0.0 -0.0 0.0 -0.0 33.9166 25.4757 -14.3358 -5.16721 -0.177996 -0.772769 -5.04797 -16.318 -0.753503 6.03216 -0.0 -0.0 0.0 0.0 0.0 
2780.36138084 697.699 -1952.45139728 -5.19780985588 35.8875027872 8.67530994669 1.54806 0.0311547 -0.705133 1.54834 0.0759598 -0.701721 1.5474 0.203584 -0.675824 1.54678 0.0942978 -0.699493 4.78795 3.43836 1.01403 4.8141 5.02195 1.3345 -0.0 0.0 -0.0 4.35812 -3.43074 8.24623 15.1956 7.27073 66.5774 1.80235 -41.7556 0.687498 65.6687 -2.30375 -7.60523 2.80633 2.02743 19.9074 -0.0 0.0 -0.0 3.82738 -4.31232 -7.5883 -37.4278 45.9103 -63.3759 0.517144 14.3691 -0.0651893 -67.9938 6.29029 -5.27974 -4.97235 3.3116 37.4808 0.0 0.0 0.0 -1.18968 -3.16607 1.71284 -3.82324 0.138425 0.570313 30.7331 26.0284 -4.21801 36.3489 -0.0 -0.0 -0.0 0.0 -0.0 34.2167 25.6652 -14.6796 -0.995478 -0.0397075 -0.147607 -4.07918 -15.1955 -0.60631 5.72605 -0.0 -0.0 0.0 0.0 0.0 
